<svg xmlns="http://www.w3.org/2000/svg" width="256" height="256"><path fill="#1976D2" fill-opacity=".016" fill-rule="evenodd" d="M0 128.004v128.004l128.25-.254 128.25-.254.254-127.75L257.008 0H0zm.485.496c0 70.4.119 99.053.265 63.672s.146-92.98 0-128S.485 58.1.485 128.5"/><path fill="#1976D2" fill-opacity=".307" fill-rule="evenodd" d="M177 35.212c-8.722 2.512-19.074 6.035-25.5 8.676l-7 2.878-3.613-1.99-3.613-1.99-26.887 15.759C95.599 67.212 83.081 74.676 82.57 75.132c-.512.455-1.001 2.888-1.087 5.405-.14 4.065-.787 5.269-5.789 10.77-12.222 13.441-14.957 16.182-15.881 15.918-.529-.151-.725.109-.436.577.29.468-1.69 3.517-4.4 6.775-2.709 3.257-4.938 6.887-4.952 8.066-.025 2.179-2.455 3.827-4.122 2.797-.505-.312-1.179.117-1.5.952s-3.017 2.892-5.993 4.572c-5.071 2.862-6.428 4.037-4.66 4.035.413 0 4.532-2.25 9.154-5 7.59-4.515 8.993-5.001 14.5-5.025 9.183-.039 25.038-1.753 32.48-3.511 12.427-2.937 11.818-2.896 9.789-.654-.975 1.078-3.888 2.533-6.473 3.233-6.754 1.831-14.352 5.824-14.873 7.816-.618 2.364-14.591 9.638-16.85 8.772-1.552-.596-1.595-.473-.368 1.039 1.589 1.959 1.612 1.969-7.109-3.206-3.575-2.122-6.65-4.219-6.833-4.66-.184-.442-.746-.803-1.25-.803-2.311 0-.362 1.885 6.214 6.011l7.13 4.474-3.953.675c-2.175.372-5.687 1.649-7.806 2.839-3.128 1.757-4.299 1.959-6.24 1.074-1.448-.659-2.147-.695-1.774-.092.359.581-.049.741-.979.384-.877-.337-1.354-.854-1.058-1.149.92-.92-3.391-3.371-4.607-2.619q-1.151.709-.334-.612c.591-.957.365-1.151-.814-.699-.898.345-1.898.196-2.223-.33-.778-1.259-2.473-1.229-2.473.044 0 .55.464 1 1.031 1 .568 0 3.886 1.915 7.375 4.255 4.949 3.32 6.07 4.511 5.098 5.419-.96.896-3.278.011-10.124-3.869-4.884-2.768-9.247-5.371-9.696-5.785s1.274-1.977 3.828-3.474c2.555-1.497 4.439-2.928 4.188-3.18-.252-.251-2.653.837-5.336 2.419s-5.438 2.69-6.121 2.463c-2.822-.941-.968 1.438 2.507 3.216C25.776 148.546 40 157.089 40 157.626c0 .271-.45.214-1-.126s-1.007.196-1.015 1.191c-.039 4.59-1.461 4.521-10.074-.483-19.658-11.423-25.763-15.254-26.207-16.445q-.471-1.262-1.247.623c-.426 1.037-.328 2.612.218 3.5s11.981 8.097 25.409 16.021a89631 89631 0 0 1 60.619 35.819c19.912 11.777 37.513 21.907 39.114 22.511 2.727 1.029 4.354.257 25.797-12.247 75.146-43.82 102.906-60.311 104.042-61.806.704-.926 1.243-2.584 1.196-3.684-.07-1.673-.159-1.714-.541-.25-.252.963-.942 1.75-1.534 1.75-1.048 0-12.983 6.879-89.211 51.419C145.253 207.289 128.338 217 127.978 217c-.644 0-33.589-19.39-61.978-36.479-10.577-6.366-13.553-8.55-11-8.073 1.925.36 5.975.988 9 1.396 6.563.885 4.121-.388 37.082 19.332l26.582 15.903 12.418-7.346c47.252-27.952 52.352-30.699 55.946-30.135 4.476.702 8.057-1.585 6.125-3.913-1.082-1.304-.631-1.898 3.038-3.997 2.37-1.355 6-2.761 8.067-3.123 2.369-.415 4.335-1.54 5.321-3.045 1.483-2.264 9.482-7.697 17.671-12.003 3.837-2.018 4.841-3.517 2.355-3.517-1.591 0-23.755-12.85-24.775-14.364-.369-.548-1.301-1.088-2.072-1.201s-10.244-5.536-21.05-12.051c-12.684-7.647-19.303-12.189-18.677-12.815 1.578-1.578 1.143-2.428-2.104-4.107-1.832-.947-4.166-1.349-5.778-.995-1.939.426-3.336.008-4.927-1.475C158 93.853 157 93.255 157 93.661s-.499.24-1.109-.37c-.813-.813-.105-2.94 2.644-7.95 2.065-3.763 4.431-8.191 5.259-9.841s3.013-4.877 4.857-7.171 4.846-7.019 6.67-10.5c2.826-5.392 4.149-8.922 7.43-19.829.248-.825-1.326 1.223-3.499 4.551-3.906 5.985-14.059 16.975-14.902 16.132-.24-.24 2.214-3.087 5.453-6.326 5.086-5.086 12.159-15.304 12.188-17.607.011-.893-.427-.852-4.991.462m-42.188 39.101c-14.679 8.879-26.545 16.287-26.37 16.462.493.493 54.558-31.528 54.558-32.312 0-1.083-2.798.49-28.188 15.85M95.044 94.772c1.901 2.271 3.611 3.686 3.8 3.145.621-1.772-.568-3.386-3.939-5.345l-3.317-1.929zM80 101.546c-5.225 4.13-12.875 9.817-17 12.637-10.046 6.868-10.416 7.315-4 4.831 13.052-5.052 35.303-16.077 36.563-18.116.728-1.179-3.333-6.904-4.881-6.88-.65.01-5.457 3.397-10.682 7.528m73.143-3.628c-.629 2.098-1.143 5.705-1.143 8.016v4.201l5.964-3.278c5.526-3.038 5.849-3.406 4.402-5.005-.859-.949-1.277-2.187-.929-2.751.349-.563-1.118-1.918-3.259-3.01l-3.893-1.986zm13.779 6.008c-3.033.675-13.922 7.145-13.922 8.273 0 1.559 8.062 5.804 16.177 8.518 6.727 2.249 8.382 3.201 8.633 4.96.512 3.596 2.41 4.425 5.208 2.275 1.365-1.049 1.92-1.918 1.232-1.93-2.498-.044-1.159-2.028 2.696-3.994 2.411-1.231 4.184-1.627 4.559-1.021.337.546-.003.993-.755.993s-2.241.647-3.309 1.439c-1.797 1.332-1.82 1.562-.308 3.098 1.336 1.356 2.035 1.443 3.836.48 1.211-.649 2.454-.927 2.762-.62s-.518.991-1.836 1.518c-2.179.872-1.085 1.643 1.605 1.132.55-.104.466.354-.186 1.018-.926.942-1.933.767-4.576-.792-2.915-1.72-3.65-1.811-5.241-.647-1.018.744-1.557 1.647-1.198 2.006s1.31.108 2.113-.559c1.145-.95 1.96-.944 3.774.03 2.631 1.413 6.285 1.942 12.889 1.866 8.981-.102 18.766 9.608 18.884 18.74l.041 3.208 4.976-3.093c2.737-1.701 4.738-3.477 4.448-3.947s.058-.635.774-.367c.716.269 2.517-.316 4.003-1.299l2.701-1.787-29.701-17.703c-16.336-9.736-31.501-18.753-33.701-20.036-2.658-1.549-4.865-2.14-6.578-1.759m-111.481 5.629c-1.864 1.494-1.852 1.512.309.465 1.237-.6 2.25-1.3 2.25-1.555 0-.765-.519-.544-2.559 1.09m-5 3c-1.864 1.494-1.852 1.512.309.465 1.237-.6 2.25-1.3 2.25-1.555 0-.765-.519-.544-2.559 1.09M170.5 127.474c-5.225 3.218-3.966 3.247 1.648.038 2.394-1.368 3.902-2.491 3.352-2.495s-2.8 1.102-5 2.457m7.5 4.965c0 1.965-1.1 3.248-4.75 5.542-4.467 2.806-5.323 2.977-14.385 2.872-5.3-.062-10.188.229-10.864.646-.789.488 1.76 2.489 7.135 5.601 6.595 3.818 8.576 4.566 9.364 3.535.55-.72 2.125-1.89 3.5-2.601 2.436-1.26 2.426-1.215-.359 1.755l-2.858 3.047 3.103 1.605c2.915 1.508 3.347 1.481 7.109-.438 2.203-1.124 4.005-2.208 4.005-2.409 0-.202-1.575-1.114-3.5-2.027s-3.5-2.132-3.5-2.709c0-.576 1.963.102 4.362 1.508 3.876 2.272 4.572 2.397 6.25 1.127 1.61-1.219 1.648-1.434.26-1.461-.895-.018-3.244-.707-5.218-1.532-4.039-1.688-4.047-4.02-.018-5.552 1.715-.652 2.364-1.674 2.364-3.723 0-1.554.563-3.431 1.25-4.172 1.022-1.102.921-1.231-.552-.712-.995.352-1.548.225-1.234-.283.313-.506.111-1.202-.448-1.548-.587-.363-1.016.452-1.016 1.929m-163.559 1.116c-1.864 1.494-1.852 1.512.309.465 1.238-.6 2.25-1.3 2.25-1.555 0-.765-.519-.544-2.559 1.09m-5 3c-1.864 1.494-1.852 1.512.309.465 1.238-.6 2.25-1.3 2.25-1.555 0-.765-.519-.544-2.559 1.09m29.738 2.778c-2.818 1.258-2.75 2.086.285 3.469 1.814.826 2.647.828 3.155.006.448-.726.231-.834-.619-.308q-1.31.809-.585-.362c.398-.644 1.139-.914 1.646-.6.508.314 1.66.158 2.559-.345 1.337-.748 1.387-1.07.276-1.757-1.931-1.194-4.194-1.228-6.717-.103m184.38.201c-1.922 1.451-1.922 1.481 0 2.939 3.023 2.295 5.405 2.802 6.989 1.487 2.441-2.025 2.241-2.274-4.548-5.644-.275-.137-1.374.411-2.441 1.218m-97.491 3.069c-.038 1.707-.361 5.907-.719 9.334l-.651 6.231 5.232-3.22c4.271-2.628 5.128-3.608 4.665-5.334-.312-1.163-.574-2.901-.581-3.864-.01-1.254-.821-1.75-2.861-1.75-1.965 0-3.184-.698-3.933-2.25-1.034-2.145-1.088-2.105-1.152.853m92.087-1.638c.209.626 1.946 2.057 3.862 3.182s2.583 1.318 1.483.43-2.838-2.32-3.862-3.182-1.691-1.055-1.483-.43M.158 144c0 1.375.227 1.938.504 1.25.278-.687.278-1.812 0-2.5-.277-.687-.504-.125-.504 1.25m143.112-.297c-1.227.237-3.173 1.629-4.325 3.094-1.727 2.195-2.038 3.769-1.77 8.948.273 5.281.046 6.372-1.425 6.837-.963.304-1.75.957-1.75 1.452 0 .494 1.575-.031 3.5-1.167 3.811-2.248 4.501-3.129 1.75-2.236-.963.313.178-.637 2.535-2.109l4.286-2.678 3.714 2.18c2.043 1.198 3.374 1.83 2.957 1.403s.483-1.595 2-2.595c2.89-1.906 5.86-2.581 3.258-.741-1.333.943-1.333 1.013 0 .631.825-.236 1.368-1.17 1.206-2.076-.325-1.821.576-2.07 2.676-.74 1.681 1.065 2.698.393-22.882 15.114-21.612 12.438-22.21 12.831-21.43 14.093.89 1.441-1.032 1.014-3.129-.695-1.734-1.412-1.749-1.52-.139-1.011 1.094.346 1.552.166 1.166-.459-.35-.566-1.611-.757-2.802-.423-1.499.419-1.755.321-.832-.32 1.077-.748 1.019-1.048-.302-1.554-1.06-.407-1.392-.234-.945.49.42.68.146.92-.698.614-.764-.278-1.282-.995-1.151-1.594.132-.606-.453-.824-1.32-.491-1.235.474-.973.984 1.262 2.457 1.551 1.023 2.41 1.863 1.908 1.866-.938.007-9.588-4.842-9.588-5.374 0-1.114 9.307.23 12.131 1.752l3.472 1.87 7.356-4.714c5.58-3.578 7.015-4.939 5.948-5.641-1.148-.756-.972-1.291.954-2.906 3.104-2.604 1.859-2.512-3.003.22-3.572 2.008-4.32 2.091-8.558.958-4.484-1.199-4.821-1.132-9.722 1.953-2.793 1.757-6.313 3.913-7.822 4.792-1.509.878-2.746 1.834-2.75 2.123-.013 1.093 19.572 12.356 21.265 12.229 1.048-.079 1.496.313 1.096.96-.385.624-.218.811.389.436 1.2-.742 1.076-3.192-.221-4.372-.47-.428-.532-.216-.136.471.395.688.22 1.25-.39 1.25-1.657 0-7.273-3.069-6.688-3.655.279-.279 1.456 0 2.614.62s2.542.858 3.075.529c.532-.329 2.571.162 4.53 1.092 3.537 1.679 3.582 1.671 6.458-1.084 1.592-1.526 3.032-3.924 3.199-5.33.23-1.945 1.738-3.374 6.303-5.975 14.794-8.431 28.499-16.692 28.488-17.172-.006-.289-2.594-1.976-5.75-3.75a687 687 0 0 1-10.988-6.333c-7.269-4.302-6.624-2.912.765 1.648 3.309 2.042 5.797 3.931 5.53 4.198-.808.808-13.568-7.942-12.976-8.899.302-.489.41-.828.24-.753s-1.313.33-2.539.567m52.602 3.047c-1.269 1.619-1.222 1.64.628.283 1.1-.807 2.188-1.594 2.417-1.75s-.054-.283-.628-.283-1.662.787-2.417 1.75M166.5 152c-.34.55-.168 1 .382 1s1.278-.45 1.618-1 .168-1-.382-1-1.278.45-1.618 1m23.25 6.517c-3.162 2-5.75 3.98-5.75 4.4 0 .419 1.125 1.275 2.5 1.901s2.5 1.635 2.5 2.242c0 .611-1.503.174-3.366-.977l-3.366-2.08-10.095 6.748c-5.552 3.712-9.973 7.169-9.823 7.683.15.513 1.89 1.773 3.866 2.799l3.594 1.865 11.095-6.586c6.102-3.622 11.095-7.082 11.095-7.689 0-1.71 3.232-3.755 6-3.796 1.375-.021 4.2-1.066 6.277-2.324l3.778-2.287-3.085-2.28c-5.203-3.847-8.674-3.76-15.22.381m-43.916-.732c1.075.755 1.011 1.061-.332 1.576-2.352.902-2.721.803-1.907-.516.446-.721.274-.882-.457-.43-.644.398-.93 1.112-.636 1.588.294.475-2.446 2.649-6.088 4.83-5.785 3.465-6.347 4.054-4.446 4.657 1.422.451 2.813.113 4.016-.975 1.012-.917 2.472-1.759 3.243-1.872s2.671-1.204 4.222-2.424c1.551-1.221 3.207-2.219 3.68-2.219 1.417 0 .301-4.364-1.221-4.773-1.148-.309-1.162-.206-.074.558m8.673.204c-.35.566.051.734.941.393 1.732-.665 2.049-1.382.611-1.382-.518 0-1.216.445-1.552.989m-57.783 6.51c-8.656 2.369-8.616 2.303-3.41 5.69 6.371 4.143 5.081 4.977-1.434.927-2.828-1.758-5.617-3.037-6.199-2.843s1.774 2.074 5.237 4.177c4.503 2.735 6.506 3.481 7.038 2.621.41-.662 1.419-1.303 2.243-1.424 1.943-.285 12.801-6.86 12.801-7.751 0-2.324-9.813-3.167-16.276-1.397m3.026 5.581c-2.306 1.343-2.224 2.491.177 2.491 1.059 0 1.708-.353 1.441-.785-.268-.432.441-.786 1.573-.786s2.059-.45 2.059-1c0-1.283-2.988-1.237-5.25.08M105 174c-1.375 1.076-2.05 1.956-1.5 1.956s2.125-.88 3.5-1.956 2.05-1.956 1.5-1.956-2.125.88-3.5 1.956m53.701 5.633c-1.106 1.106 4.257 4.597 6.022 3.92 1.353-.519 1.062-1.006-1.553-2.596-3.618-2.2-3.599-2.194-4.469-1.324m-8.145 5.33c-3.144 2.088-5.783 4.188-5.865 4.666s-1.613 1.865-3.403 3.08c-2.932 1.989-3.567 2.077-6.391.89l-3.135-1.319 2.206-1.545 2.206-1.545-2.136-.678c-1.3-.412-3.082-.058-4.552.905-1.328.871-3.331 1.583-4.451 1.583-2.773 0-2.559 1.382.465 3 1.375.736 2.5 2.144 2.5 3.13 0 2.145-3.746 5.861-5.939 5.892-1.106.016-.84.576.91 1.921 1.359 1.045 3.384 1.842 4.5 1.771 1.979-.125 35.052-18.938 39.029-22.201 1.878-1.541 1.849-1.546-.473-.077-3.349 2.119-6.109 1.968-6.719-.367-.852-3.257-2.801-3.058-8.752.894M111 183c0 .55.702 1 1.559 1s1.281-.45.941-1-1.041-1-1.559-1-.941.45-.941 1m8 .5c-1.596 1.923.032 1.943 2.559.032 1.631-1.234 1.681-1.473.313-1.5-.895-.018-2.187.643-2.872 1.468"/><path fill="#1976D2" fill-opacity=".488" fill-rule="evenodd" d="M178.634 44.042c-2.398 4.061-12.579 14.955-13.992 14.972-.628.008-13.517 7.392-28.642 16.409-22.978 13.698-27.747 16.188-29 15.139C105.04 88.921 83.394 76 82.606 76c-.333 0-.606 2.28-.606 5.067 0 4.437-.414 5.463-3.328 8.25-5.07 4.849-23.9 25.758-26.5 29.426-1.264 1.784-1.982 3.755-1.596 4.38 1.036 1.677 29.236.451 37.424-1.628 3.575-.907 8.028-1.852 9.895-2.1 3.015-.4 3.248-.272 2.073 1.143-1.737 2.093-5.634 4.041-9.941 4.97-5.479 1.181-11.027 5.131-11.027 7.85 0 1.282-.889 3.137-1.976 4.121-1.087.983-1.77 2.122-1.518 2.531.558.903-6.59 5.99-8.417 5.99-.772 0-1.058-.638-.702-1.565.458-1.195.137-1.419-1.356-.945-1.075.341-2.985.133-4.243-.463-2.495-1.183-2.545-1.228 3.702 3.342 1.951 1.426 1.938 1.479-.623 2.646-1.872.852-3.173.892-4.582.138-1.561-.836-2.704-.553-5.534 1.37-1.962 1.333-3.744 2.957-3.961 3.608-.263.789-1.966.264-5.093-1.568-5.543-3.249-6.346-2.769-1.013.605 2.026 1.283 4.135 2.635 4.686 3.006 1.191.801-1.166 4.07-2.39 3.314-.436-.27-.568.372-.292 1.426.338 1.293-.318 2.453-2.017 3.566-3.023 1.981-1.772 2.537-24.797-11.024C3.099 144.166 1 143.155 1 144.845c0 1.658 4.012 4.168 45 28.155 22.825 13.357 50.163 29.43 60.75 35.716s20.001 11.285 20.917 11.107c2.423-.47 2.877-2.823.546-2.823-1.628 0-76.091-43.46-78.071-45.565-.353-.376.295-.396 1.44-.045 1.408.432 2.673-.014 3.905-1.376 1.003-1.108 2.316-2.014 2.918-2.014 1.591 0 17.291 8.923 39.447 22.419 10.644 6.483 20.657 11.993 22.25 12.244 2.513.396 2.898.141 2.898-1.921 0-1.971-2.186-3.721-12.75-10.209C79.917 171.903 75 168.606 75 166.896c0-.951-.337-1.918-.75-2.149-.412-.23-.202-.288.468-.127s1.45-.083 1.734-.543 1.45-1.08 2.59-1.378c1.701-.445 1.861-.287.893.88-1.125 1.355-.961 1.501 1.575 1.401.281-.011 1.969.7 3.75 1.581l3.24 1.602-3-2.545c-1.65-1.401-2.55-2.62-2-2.71a79 79 0 0 1 3.182-.396c1.199-.128 2.85-.902 3.668-1.719s3.527-2.059 6.019-2.756l4.532-1.269 8.626 5.191c11.048 6.649 13.746 7.106 20.447 3.459 6.039-3.287 6.91-4.62 6.283-9.618l-.464-3.7-5.366 3.028c-5.504 3.106-8.153 3.131-6.551.061.485-.929 1.194-5.541 1.577-10.25.382-4.708 1.105-9.208 1.606-10 .738-1.166.913-1.086.926.42.012 1.527.628 1.788 3.443 1.46l3.428-.401-.519 4.541c-.286 2.498.018 5.891.675 7.541 1.118 2.809 1.245 2.867 1.996.918 1.227-3.181 6.606-7.236 11.287-8.508 2.505-.68 7.149-.897 11.488-.536 6.843.569 7.613.42 12.75-2.479 5.46-3.082 5.467-3.092 5.467-7.99 0-2.698-.218-4.905-.485-4.905s-2.65 1.332-5.296 2.96l-4.81 2.96-5.455-1.895c-3-1.043-6.804-2.198-8.454-2.568l-3-.672 2.499-.953c1.375-.524 3.432-1.827 4.57-2.897 2.052-1.927 2.144-1.927 9.916.061 9.172 2.346 11.358 1.967 2.839-.492-3.203-.925-8.375-3.035-11.492-4.689-7.289-3.866-8.59-6.639-7.035-14.998 1.345-7.235 11.007-27.335 16.466-34.258 4.481-5.682 8.192-12.663 10.872-20.451 2.163-6.286 1.998-7.296-.501-3.066m-30.107 5.279c4.428 2.964 9.473 5.811 9.473 5.346 0-.61-9.755-6.667-10.738-6.667-.389 0 .181.594 1.265 1.321m-11.277 4.174c-2.762 1.986-2.883 4.096-.316 5.47 5.354 2.865 13.635-.437 10.805-4.308-1.817-2.484-7.738-3.14-10.489-1.162m22.483 2.629c.679.684 1.486.991 1.793.683.308-.308-.247-.867-1.233-1.243-1.425-.542-1.54-.428-.56.56M97 68.091c-4.125 2.234-8.591 4.764-9.923 5.622-2.296 1.478-2.328 1.63-.612 2.885 1.556 1.138 2.43.962 6.211-1.254 4.64-2.719 13.927-11.434 12.074-11.33-.138.008-3.625 1.842-7.75 4.077m-3.641 25.426c2.484 2.484 4.8 5.409 5.146 6.5.87 2.74 2.495 2.491 2.495-.382 0-3.197-3.611-7.575-7.636-9.256-4.927-2.059-4.927-1.785-.005 3.138m-12.07 3.165c-6.185 5.002-25.795 21.705-28.289 24.095-1.317 1.262-1.194 1.349 1 .715 4.103-1.186 26.268-10.122 34.934-14.083 6.128-2.801 8.066-4.163 8.066-5.666C97 99.677 90.032 92 88.157 92c-.594 0-3.684 2.107-6.868 4.682m83.063 1.311c-3.33 1.344-3.562 2.639-.798 4.451 2.743 1.797 5.501 1.399 7.568-1.091 1.092-1.316.995-1.794-.601-2.961-2.149-1.572-3.108-1.634-6.169-.399M180 130.378c0 .207.787.995 1.75 1.75 1.586 1.243 1.621 1.208.378-.378-1.307-1.666-2.128-2.195-2.128-1.372m7.788 1.459c1.808.965 2.971 2.071 2.583 2.458-.387.388.469.705 1.903.705s2.902.476 3.261 1.057c.833 1.347-9.514.56-12.31-.937-2.374-1.27-3.225-.575-3.225 2.636 0 1.333-1.012 3.252-2.25 4.265l-2.25 1.842 4.828 2.15 4.828 2.15 4.098-2.713c3.291-2.177 4.604-2.534 6.663-1.81 4.733 1.664 3.596 3.759-5.014 9.24l-8.181 5.207-2.176-2.043c-1.196-1.124-2.821-2.04-3.61-2.036-.79.005-7.964 3.942-15.942 8.75-7.979 4.808-17.09 10.092-20.248 11.742-4.81 2.513-5.742 3.434-5.744 5.677-.001 1.663-.949 3.423-2.502 4.644-3.135 2.466-3.186 3.389-.144 2.626 1.477-.371 2.942-.006 3.926.978.863.863 2.278 1.297 3.144.965s1.574-.153 1.574.397c0 .551 3.938-1.642 8.75-4.872 4.813-3.231 9.313-5.883 10-5.894.688-.012 1.25-.374 1.25-.806 0-.431 4.838-3.902 10.75-7.712s11.067-7.43 11.454-8.045c1.32-2.094 12.589-8.458 14.947-8.441 2.486.018 12.228 5.271 11.369 6.13-.278.277.954.303 2.738.057 5.054-.698 6.742-2.792 6.742-8.367 0-4.509-.134-4.77-1.89-3.674-1.595.996-2.532.671-6.016-2.089-2.382-1.886-5.735-3.484-7.927-3.778-2.09-.281-4.895-1.369-6.233-2.42l-2.434-1.909 2.647.953c1.456.524 2.907.692 3.225.374.672-.672 12.301 1.585 14.871 2.886 1.538.779 1.616.604.661-1.491-.595-1.306-3.473-3.823-6.395-5.595-4.94-2.994-5.664-3.156-10.286-2.316-4.075.74-5.581.579-8.347-.895-1.857-.99-4.051-1.799-4.876-1.799s-.02.789 1.788 1.753M49 136.43c0 .275.9.981 2 1.57s2 .845 2 .57-.9-.981-2-1.57-2-.845-2-.57m56 21c0 .275.9.981 2 1.57s2 .845 2 .57-.9-.981-2-1.57-2-.845-2-.57m-51.128 5.32c-1.243 1.586-1.208 1.621.378.378 1.666-1.307 2.195-2.128 1.372-2.128-.207 0-.995.787-1.75 1.75m140.248 4.125-2.38 1.83 2.353 1.647c2.933 2.055 3.876 2.058 6.775.028l2.314-1.621-2.841-1.873c-3.447-2.272-3.281-2.272-6.221-.011m-65.679 6.68c-1.83 1.467-1.798 1.487.559.365 3.061-1.458 3.628-1.92 2.358-1.92-.537 0-1.849.7-2.917 1.555m-8.58 5.504-2.361 2.06 2.75-1.675c1.513-.921 2.75-1.847 2.75-2.059 0-.781-.835-.335-3.139 1.674"/><path fill="#1976D2" fill-opacity=".304" fill-rule="evenodd" d="M174.086 50.505c-3.633 4.552-8.321 8.793-9.325 8.434-.144-.051-12.747 7.353-28.007 16.454l-27.746 16.548-12.395-7.471C89.795 80.362 83.944 77 83.609 77s-.617 2.138-.626 4.75c-.014 3.761-.541 5.247-2.532 7.135-2.831 2.686-2.654 3.883.301 2.038 2.758-1.722 6.644-.464 11.156 3.613 4.109 3.712 6.669 8.517 5.777 10.842C96.502 108.46 52 123.982 52 121.312c0-.465 2.069-3.314 4.598-6.329l4.599-5.483-5.099 5.32c-2.804 2.926-5.098 6.258-5.098 7.405 0 2.048.262 2.074 14.25 1.434 7.838-.359 17.4-1.37 21.25-2.246 11.259-2.564 14.977-3.262 15.356-2.887 1.015 1.006-5.185 5.471-8.984 6.471-2.405.633-6.397 2.21-8.872 3.505-4.432 2.319-4.505 2.438-4.8 7.919-.296 5.508-.263 5.581 3.299 7.28l3.599 1.716-2.299 1.859c-2.148 1.736-2.157 1.789-.144.807 1.428-.697 4.528-.754 9.18-.17 10.581 1.329 11.304 2.445 4 6.171-2.216 1.131-3.779 2.305-3.475 2.61.305.305 2.176-.403 4.159-1.572 2.857-1.687 4.057-1.908 5.792-1.069 2.114 1.021 2.122 1.004.248-.498-1.915-1.534-1.914-1.555.076-1.555 2.102 0 4.863 2.553 7.859 7.267 1.697 2.671 1.693 2.745-.118 2.144-1.032-.343-.363.348 1.487 1.536 1.849 1.189 3.599 1.925 3.887 1.636.288-.288 1.77.363 3.291 1.447 3.555 2.53 3.573 2.528 10.281-1.105 5.585-3.025 5.678-3.148 5.678-7.5 0-2.434-.168-4.425-.374-4.425s-2.456 1.163-5 2.585c-4.412 2.467-4.626 2.79-4.626 7 0 2.484-.471 4.415-1.076 4.415-.649 0-.965-1.785-.798-4.501.271-4.405.168-4.572-4.731-7.75-3.146-2.041-4.88-3.831-4.663-4.815.189-.862 2.552-2.887 5.25-4.5 5.198-3.109 4.834-2.321 6.575-14.25.549-3.761.625-3.819 5.25-4.033 6.35-.294 10.995-1.886 15.257-5.229 5.977-4.688 8.2-5.354 11.748-3.519 1.699.878 3.449 1.576 3.888 1.55.44-.025-1.33-1.155-3.934-2.511-6.588-3.429-8.113-6.097-7.549-13.199.437-5.502 6.001-20.163 9.959-26.243.895-1.375 1.933-3.963 2.305-5.75S164.55 69 165.029 69c2.421 0 15.246-22.058 13.715-23.59-.182-.181-2.277 2.112-4.658 5.095M136.5 54.456c-1.986 1.534-1.983 1.56.361 3.545 4.329 3.666 13.053 1.437 10.537-2.692-1.462-2.401-8.211-2.929-10.898-.853m-50 34.199c4.584 2.406 10.085 8.099 12.061 12.479 1.239 2.748 2.023 3.55 2.592 2.653 1.714-2.702.807-6.763-2.301-10.303-3.895-4.435-7.749-6.496-12.052-6.444l-3.3.04zm-14 8.689c-7.489 7.781-8.856 10.18-1.962 3.443 3.778-3.692 6.665-6.912 6.416-7.156-.25-.243-2.254 1.427-4.454 3.713m89.5 3.062c0 .2 1.125 1.101 2.5 2.002s2.5 1.25 2.5.776c0-.475-1.125-1.376-2.5-2.002-1.375-.627-2.5-.976-2.5-.776m-53.832 13.461c-.158 4.11-.036 4.323 2.082 3.621 1.237-.41 4.366-.954 6.952-1.21 4.047-.4 5.057-.11 7.25 2.083 1.401 1.402 2.548 2.159 2.548 1.682s-1.406-2.048-3.124-3.494c-2.503-2.106-4.018-2.582-7.622-2.396-2.473.129-5.09.826-5.815 1.551-1.089 1.089-1.385.667-1.71-2.444l-.393-3.76zM83 118.109c-4.125 1.039-10.875 2.515-15 3.281-4.533.841-6.228 1.435-4.285 1.501 4.389.149 22.001-3.34 26.293-5.208 4.661-2.029 2.127-1.875-7.008.426m89.25 10.294c-4.904 2.807-5.26 3.272-5.4 7.051l-.15 4.046-.6-4.5c-.58-4.351-.766-4.557-5.6-6.206-6.506-2.22-14.867-2.281-18.501-.134-4.381 2.588-7.027 8.188-6.839 14.476.107 3.584.294 4.286.563 2.114.299-2.409.905-3.25 2.34-3.25 2.237 0 2.464 1 .687 3.023-.825.94-.571.891.75-.144 4.501-3.53 10.668-5.031 19.45-4.734 7.884.267 8.927.066 13.388-2.574 5.454-3.229 5.924-3.98 5.479-8.767l-.317-3.407zM81 131.43c0 .275.9.981 2 1.57s2 .845 2 .57-.9-.981-2-1.57-2-.845-2-.57m99.606 7.631c-.774 4.84-.483 5.438 3.281 6.75 2.441.851 3.438.619 6.393-1.484 3.361-2.391 3.627-2.427 6.611-.883 3.625 1.874 3.99 4.449 1.014 7.142l-2.096 1.897 2.346.659c1.29.362 3.738.703 5.44.758 1.77.057 3.906.996 4.989 2.193 3.259 3.6 5.284 4.223 7.983 2.455 1.973-1.293 2.433-2.434 2.433-6.04 0-3.54-.305-4.328-1.5-3.87-1.018.391-1.5 1.987-1.5 4.969 0 2.54-.466 4.393-1.105 4.393-.69 0-.959-1.533-.716-4.079.35-3.672.011-4.42-3.398-7.5-2.557-2.31-4.771-3.421-6.819-3.421-2.928 0-7.395-2.202-9.462-4.664-1.54-1.834-4.992-1.999-7.038-.336-1.065.865-1.528.97-1.094.248.491-.817-.16-1.599-1.873-2.25-1.444-.549-2.763-.998-2.932-.998s-.6 1.827-.957 4.061m-114.29 8.992c-3.59 2.544-4.529 2.807-6.626 1.852-1.958-.893-2.961-.774-5.058.6-1.438.943-2.36 2.126-2.049 2.629s.021.792-.645.641-1.584 1.075-2.04 2.725l-.828 3 1.815-2.377c1.508-1.975 2.474-2.298 5.715-1.909 2.502.301 4.796-.087 6.4-1.08 1.375-.852-.141 1.032-3.369 4.187l-5.87 5.736-3.297-1.946c-3.84-2.265-4.464-1.925-4.464 2.433 0 3.586 1.215 4.97 5.256 5.984 2.568.645 2.753.474 2.88-2.67.095-2.345.267-2.679.57-1.108.455 2.363 1.749 2.942 2.794 1.25 1.754-2.839 3.057-2.154 48.196 25.35 7.809 4.758 14.671 8.65 15.25 8.65s1.039-.787 1.02-1.75c-.023-1.171-4.738-4.564-14.245-10.25C75.814 170.914 61 161.362 61 159.872c0-.503 1.112-1.421 2.47-2.04 1.903-.867 2.833-.825 4.047.182 2.348 1.949 6.882-1.695 7.296-5.864.261-2.62-.128-3.319-2.31-4.149-1.443-.548-2.345-1.448-2.004-1.999.898-1.453.46-1.238-4.183 2.051m104.934 8.977c-2.887 1.656-5.25 3.245-5.25 3.532 0 .547 8.802-4.277 10.45-5.727 1.752-1.54.089-.838-5.2 2.195m-81.809 1.525c-1.864 1.494-1.852 1.512.309.465 1.237-.6 2.25-1.3 2.25-1.555 0-.765-.519-.544-2.559 1.09m88.059 2.277c-13.759 9.288-27.178 17.595-30.586 18.934-3.729 1.465-4.043 1.444-5.408-.356-.797-1.05-1.249-2.478-1.005-3.172.322-.913-.375-.837-2.528.276-2.411 1.247-2.973 2.179-2.973 4.928 0 1.865-.562 3.618-1.25 3.896-.687.277-.35.554.75.615s2.874.771 3.941 1.579c1.068.807 2.475 1.468 3.127 1.468 1.893 0 40.447-25.877 41.104-27.587 1.154-3.008-1.186-3.271-5.172-.581m-15.059 1.723c-1.864 1.494-1.852 1.512.309.465 1.238-.6 2.25-1.3 2.25-1.555 0-.765-.519-.544-2.559 1.09m-11.301 6.453c-10.498 6.126-11.898 7.512-2.555 2.528 6.328-3.375 12.745-7.562 11.415-7.449-.275.024-4.262 2.238-8.86 4.921m40.86-.534c0 .261 1.463 1.188 3.25 2.061l3.25 1.585-2.5-2.038c-2.407-1.962-4-2.602-4-1.608"/></svg>