<?xml version="1.0" encoding="UTF-8" standalone="no"?>
<!DOCTYPE svg PUBLIC "-//W3C//DTD SVG 1.1//EN" "http://www.w3.org/Graphics/SVG/1.1/DTD/svg11.dtd">
<svg width="100%" height="100%" viewBox="0 0 2127 415" version="1.1" xmlns="http://www.w3.org/2000/svg" xmlns:xlink="http://www.w3.org/1999/xlink" xml:space="preserve" xmlns:serif="http://www.serif.com/" style="fill-rule:evenodd;clip-rule:evenodd;stroke-linejoin:round;stroke-miterlimit:2;">
    <g>
        <path d="M236.909,181.857C236.909,195.466 235.157,208.559 231.652,221.136C228.146,233.713 223.164,245.466 216.703,256.394C210.242,267.322 202.545,277.288 193.61,286.291C184.675,295.295 174.709,303.027 163.713,309.487C152.716,315.948 140.929,320.931 128.352,324.436C115.774,327.941 102.681,329.694 89.073,329.694L0,329.694L0,34.021L89.073,34.021C102.681,34.021 115.774,35.774 128.352,39.279C140.929,42.784 152.716,47.767 163.713,54.227C174.709,60.688 184.675,68.42 193.61,77.423C202.545,86.427 210.242,96.393 216.703,107.321C223.164,118.248 228.146,130.001 231.652,142.579C235.157,155.156 236.909,168.249 236.909,181.857ZM177.734,181.857C177.734,169.624 175.431,158.146 170.826,147.424C166.221,136.702 159.898,127.321 151.857,119.279C143.816,111.238 134.4,104.881 123.609,100.207C112.819,95.534 101.307,93.197 89.073,93.197L59.588,93.197L59.588,270.518L89.073,270.518C101.307,270.518 112.819,268.215 123.609,263.611C134.4,259.006 143.816,252.683 151.857,244.641C159.898,236.6 166.221,227.184 170.826,216.394C175.431,205.603 177.734,194.091 177.734,181.857Z" style="fill:url(#_Linear1);fill-rule:nonzero;"/>
        <path d="M326.395,329.694L270.106,329.694L270.106,108.867L283.714,108.867L302.271,135.053C311.343,126.805 321.652,120.448 333.199,115.98C344.745,111.513 356.704,109.279 369.076,109.279L418.767,109.279L418.767,165.362L369.076,165.362C363.165,165.362 357.598,166.462 352.374,168.661C347.151,170.861 342.615,173.885 338.766,177.734C334.917,181.582 331.893,186.119 329.694,191.342C327.494,196.565 326.395,202.132 326.395,208.043L326.395,329.694Z" style="fill:url(#_Linear2);fill-rule:nonzero;"/>
        <path d="M654.645,329.694L641.037,329.694L619.181,299.384C613.82,304.195 608.15,308.697 602.17,312.889C596.191,317.082 589.902,320.725 583.304,323.817C576.706,326.91 569.936,329.35 562.995,331.137C556.053,332.924 549.008,333.817 541.861,333.817C526.328,333.817 511.723,331.206 498.046,325.982C484.369,320.759 472.41,313.164 462.169,303.199C451.929,293.233 443.853,281.033 437.942,266.6C432.031,252.167 429.076,235.741 429.076,217.322C429.076,200.139 432.031,184.366 437.942,170.002C443.853,155.637 451.929,143.3 462.169,132.991C472.41,122.682 484.369,114.675 498.046,108.97C511.723,103.266 526.328,100.413 541.861,100.413C549.008,100.413 556.088,101.307 563.098,103.094C570.108,104.881 576.912,107.355 583.51,110.516C590.108,113.678 596.397,117.389 602.377,121.651C608.356,125.912 613.957,130.517 619.181,135.465L641.037,109.279L654.645,109.279L654.645,329.694ZM597.944,217.322C597.944,209.624 596.466,202.167 593.511,194.95C590.555,187.734 586.535,181.342 581.449,175.775C576.363,170.208 570.418,165.74 563.613,162.373C556.809,159.005 549.558,157.321 541.861,157.321C534.163,157.321 526.912,158.627 520.108,161.239C513.304,163.85 507.393,167.699 502.376,172.785C497.358,177.871 493.407,184.16 490.52,191.651C487.633,199.143 486.19,207.699 486.19,217.322C486.19,226.944 487.633,235.5 490.52,242.992C493.407,250.483 497.358,256.772 502.376,261.858C507.393,266.944 513.304,270.793 520.108,273.405C526.912,276.016 534.163,277.322 541.861,277.322C549.558,277.322 556.809,275.638 563.613,272.271C570.418,268.903 576.363,264.435 581.449,258.868C586.535,253.301 590.555,246.909 593.511,239.693C596.466,232.476 597.944,225.019 597.944,217.322Z" style="fill:url(#_Linear3);fill-rule:nonzero;"/>
        <path d="M769.079,329.694L712.79,329.694L712.79,164.95L685.367,164.95L685.367,108.867L712.79,108.867L712.79,98.351C712.79,84.743 715.367,71.959 720.522,60.001C725.677,48.042 732.756,37.629 741.759,28.763C750.763,19.897 761.244,12.887 773.203,7.732C785.162,2.577 797.945,0 811.554,0L853.822,0L853.822,56.083L811.554,56.083C805.506,56.083 799.904,57.148 794.75,59.279C789.595,61.409 785.127,64.365 781.347,68.145C777.567,71.925 774.577,76.392 772.378,81.547C770.179,86.702 769.079,92.303 769.079,98.351L769.079,108.867L838.152,108.867L838.152,164.95L769.079,164.95L769.079,329.694Z" style="fill:url(#_Linear4);fill-rule:nonzero;"/>
        <path d="M975.473,329.694C961.864,329.694 949.081,327.116 937.122,321.962C925.163,316.807 914.682,309.728 905.678,300.724C896.675,291.721 889.596,281.24 884.441,269.281C879.286,257.322 876.709,244.538 876.709,230.93L876.709,165.362L849.286,165.362L849.286,109.279L876.709,109.279L876.709,21.031L932.792,21.031L932.792,109.279L1018.15,109.279L1018.15,165.362L932.792,165.362L932.792,230.93C932.792,236.841 933.892,242.373 936.091,247.528C938.29,252.683 941.314,257.184 945.163,261.033C949.012,264.882 953.548,267.941 958.772,270.209C963.995,272.477 969.562,273.611 975.473,273.611L1031.15,329.694L975.473,329.694Z" style="fill:url(#_Linear5);fill-rule:nonzero;"/>
        <path d="M1114.86,329.694L1055.68,329.694L1055.68,34.021L1262.69,34.021L1262.69,93.197L1114.86,93.197L1114.86,152.373L1203.52,152.373L1203.52,211.548L1114.86,211.548L1114.86,329.694Z" style="fill:url(#_Linear6);fill-rule:nonzero;"/>
        <path d="M1474.65,217.322C1474.65,233.817 1471.7,249.178 1465.79,263.404C1459.88,277.631 1451.84,289.934 1441.66,300.312C1431.49,310.69 1419.57,318.869 1405.89,324.848C1392.21,330.828 1377.54,333.817 1361.87,333.817C1346.34,333.817 1331.73,330.828 1318.05,324.848C1304.38,318.869 1292.42,310.69 1282.18,300.312C1271.94,289.934 1263.86,277.631 1257.95,263.404C1252.04,249.178 1249.08,233.817 1249.08,217.322C1249.08,200.552 1252.04,185.019 1257.95,170.723C1263.86,156.428 1271.94,144.091 1282.18,133.713C1292.42,123.334 1304.38,115.19 1318.05,109.279C1331.73,103.369 1346.34,100.413 1361.87,100.413C1377.54,100.413 1392.21,103.197 1405.89,108.764C1419.57,114.331 1431.49,122.235 1441.66,132.475C1451.84,142.716 1459.88,155.019 1465.79,169.383C1471.7,183.747 1474.65,199.727 1474.65,217.322ZM1417.95,217.322C1417.95,208.249 1416.47,200.036 1413.52,192.682C1410.56,185.328 1406.54,179.005 1401.46,173.713C1396.37,168.421 1390.42,164.366 1383.62,161.548C1376.82,158.73 1369.57,157.321 1361.87,157.321C1354.17,157.321 1346.92,158.73 1340.12,161.548C1333.31,164.366 1327.4,168.421 1322.38,173.713C1317.37,179.005 1313.41,185.328 1310.53,192.682C1307.64,200.036 1306.2,208.249 1306.2,217.322C1306.2,225.844 1307.64,233.748 1310.53,241.033C1313.41,248.318 1317.37,254.641 1322.38,260.002C1327.4,265.363 1333.31,269.59 1340.12,272.683C1346.92,275.776 1354.17,277.322 1361.87,277.322C1369.57,277.322 1376.82,275.879 1383.62,272.992C1390.42,270.106 1396.37,266.051 1401.46,260.827C1406.54,255.604 1410.56,249.281 1413.52,241.858C1416.47,234.435 1417.95,226.256 1417.95,217.322Z" style="fill:url(#_Linear7);fill-rule:nonzero;"/>
        <path d="M1562.08,329.694L1505.79,329.694L1505.79,108.867L1519.39,108.867L1537.95,135.053C1547.02,126.805 1557.33,120.448 1568.88,115.98C1580.43,111.513 1592.39,109.279 1604.76,109.279L1654.45,109.279L1654.45,165.362L1604.76,165.362C1598.85,165.362 1593.28,166.462 1588.06,168.661C1582.83,170.861 1578.3,173.885 1574.45,177.734C1570.6,181.582 1567.57,186.119 1565.38,191.342C1563.18,196.565 1562.08,202.132 1562.08,208.043L1562.08,329.694Z" style="fill:url(#_Linear8);fill-rule:nonzero;"/>
        <path d="M1833.62,217.322C1833.62,209.624 1832.15,202.167 1829.19,194.95C1826.24,187.734 1822.22,181.342 1817.13,175.775C1812.04,170.208 1806.1,165.74 1799.3,162.373C1792.49,159.005 1785.24,157.321 1777.54,157.321C1769.84,157.321 1762.59,158.627 1755.79,161.239C1748.99,163.85 1743.07,167.699 1738.06,172.785C1733.04,177.871 1729.09,184.16 1726.2,191.651C1723.32,199.143 1721.87,207.699 1721.87,217.322C1721.87,226.531 1723.32,234.813 1726.2,242.167C1729.09,249.521 1733.04,255.81 1738.06,261.033C1743.07,266.257 1748.99,270.277 1755.79,273.095C1762.59,275.913 1769.84,277.322 1777.54,277.322C1785.24,277.322 1792.49,275.638 1799.3,272.271C1806.1,268.903 1812.04,264.435 1817.13,258.868C1822.22,253.301 1826.24,246.909 1829.19,239.693C1832.15,232.476 1833.62,225.019 1833.62,217.322ZM1890.33,301.858C1890.33,317.391 1887.37,331.962 1881.46,345.57C1875.55,359.179 1867.47,371.069 1857.23,381.241C1846.99,391.412 1835.03,399.454 1821.36,405.365C1807.68,411.275 1793.08,414.231 1777.54,414.231L1115.29,413.818L1055.29,357.529L1777.13,357.941C1785.93,357.941 1793.42,356.807 1799.6,354.539C1805.79,352.271 1811.01,349.178 1815.27,345.261C1819.54,341.343 1822.94,336.842 1825.48,331.756C1828.02,326.67 1830.05,321.309 1831.56,315.673C1829.36,319.247 1826.2,322.168 1822.08,324.436C1817.95,326.704 1813.38,328.56 1808.37,330.003C1803.35,331.446 1798.13,332.443 1792.7,332.993C1787.27,333.543 1782.22,333.817 1777.54,333.817C1762.01,333.817 1747.4,331.137 1733.73,325.776C1720.05,320.415 1708.09,312.752 1697.85,302.786C1687.61,292.821 1679.53,280.621 1673.62,266.188C1667.71,251.755 1664.76,235.466 1664.76,217.322C1664.76,200.689 1667.71,185.225 1673.62,170.929C1679.53,156.634 1687.61,144.262 1697.85,133.816C1708.09,123.369 1720.05,115.19 1733.73,109.279C1747.4,103.369 1762.01,100.413 1777.54,100.413C1784.69,100.413 1791.77,101.307 1798.78,103.094C1805.79,104.881 1812.59,107.355 1819.19,110.516C1825.79,113.678 1832.08,117.389 1838.06,121.651C1844.04,125.912 1849.64,130.517 1854.86,135.465L1876.72,109.279L1890.33,109.279L1890.33,301.858Z" style="fill:url(#_Linear9);fill-rule:nonzero;"/>
        <path d="M2021.05,275.673C2023.25,276.36 2025.45,276.807 2027.65,277.013C2029.85,277.219 2032.05,277.322 2034.25,277.322C2039.74,277.322 2045.04,276.566 2050.12,275.054C2055.21,273.542 2059.98,271.377 2064.45,268.559C2068.92,265.741 2072.91,262.305 2076.41,258.25C2079.92,254.195 2082.77,249.693 2084.97,244.744L2126.2,286.188C2120.98,293.611 2114.97,300.278 2108.16,306.188C2101.36,312.099 2094.01,317.116 2086.1,321.24C2078.2,325.364 2069.88,328.491 2061.15,330.622C2052.42,332.752 2043.46,333.817 2034.25,333.817C2018.71,333.817 2004.11,330.931 1990.43,325.158C1976.75,319.384 1964.8,311.343 1954.55,301.034C1944.31,290.724 1936.24,278.456 1930.33,264.229C1924.42,250.002 1921.46,234.366 1921.46,217.322C1921.46,199.864 1924.42,183.919 1930.33,169.486C1936.24,155.053 1944.31,142.75 1954.55,132.579C1964.8,122.407 1976.75,114.503 1990.43,108.867C2004.11,103.231 2018.71,100.413 2034.25,100.413C2043.46,100.413 2052.46,101.513 2061.26,103.712C2070.05,105.912 2078.4,109.073 2086.31,113.197C2094.21,117.321 2101.6,122.372 2108.47,128.352C2115.35,134.331 2121.39,141.032 2126.62,148.455L2021.05,275.673ZM2049.92,159.589C2047.3,158.627 2044.73,158.008 2042.18,157.733C2039.64,157.458 2036.99,157.321 2034.25,157.321C2026.55,157.321 2019.3,158.73 2012.49,161.548C2005.69,164.366 1999.78,168.386 1994.76,173.61C1989.74,178.833 1985.79,185.122 1982.9,192.476C1980.02,199.83 1978.58,208.112 1978.58,217.322C1978.58,219.383 1978.68,221.72 1978.88,224.332C1979.09,226.944 1979.43,229.59 1979.91,232.27C1980.4,234.951 1980.98,237.528 1981.67,240.002C1982.36,242.476 1983.25,244.676 1984.35,246.6L2049.92,159.589Z" style="fill:url(#_Linear10);fill-rule:nonzero;"/>
    </g>
    <defs>
        <linearGradient id="_Linear1" x1="0" y1="0" x2="1" y2="0" gradientUnits="userSpaceOnUse" gradientTransform="matrix(2.53643e-14,414.231,-414.231,2.53643e-14,829.552,0)"><stop offset="0" style="stop-color:white;stop-opacity:1"/><stop offset="1" style="stop-color:white;stop-opacity:0.6"/></linearGradient>
        <linearGradient id="_Linear2" x1="0" y1="0" x2="1" y2="0" gradientUnits="userSpaceOnUse" gradientTransform="matrix(2.53643e-14,414.231,-414.231,2.53643e-14,829.552,0)"><stop offset="0" style="stop-color:white;stop-opacity:1"/><stop offset="1" style="stop-color:white;stop-opacity:0.6"/></linearGradient>
        <linearGradient id="_Linear3" x1="0" y1="0" x2="1" y2="0" gradientUnits="userSpaceOnUse" gradientTransform="matrix(2.53643e-14,414.231,-414.231,2.53643e-14,829.552,0)"><stop offset="0" style="stop-color:white;stop-opacity:1"/><stop offset="1" style="stop-color:white;stop-opacity:0.6"/></linearGradient>
        <linearGradient id="_Linear4" x1="0" y1="0" x2="1" y2="0" gradientUnits="userSpaceOnUse" gradientTransform="matrix(2.53643e-14,414.231,-414.231,2.53643e-14,829.552,0)"><stop offset="0" style="stop-color:white;stop-opacity:1"/><stop offset="1" style="stop-color:white;stop-opacity:0.6"/></linearGradient>
        <linearGradient id="_Linear5" x1="0" y1="0" x2="1" y2="0" gradientUnits="userSpaceOnUse" gradientTransform="matrix(2.53643e-14,414.231,-414.231,2.53643e-14,829.552,0)"><stop offset="0" style="stop-color:white;stop-opacity:1"/><stop offset="1" style="stop-color:white;stop-opacity:0.6"/></linearGradient>
        <linearGradient id="_Linear6" x1="0" y1="0" x2="1" y2="0" gradientUnits="userSpaceOnUse" gradientTransform="matrix(2.53643e-14,414.231,-414.231,2.53643e-14,829.552,0)"><stop offset="0" style="stop-color:white;stop-opacity:1"/><stop offset="1" style="stop-color:white;stop-opacity:0.6"/></linearGradient>
        <linearGradient id="_Linear7" x1="0" y1="0" x2="1" y2="0" gradientUnits="userSpaceOnUse" gradientTransform="matrix(2.53643e-14,414.231,-414.231,2.53643e-14,829.552,0)"><stop offset="0" style="stop-color:white;stop-opacity:1"/><stop offset="1" style="stop-color:white;stop-opacity:0.6"/></linearGradient>
        <linearGradient id="_Linear8" x1="0" y1="0" x2="1" y2="0" gradientUnits="userSpaceOnUse" gradientTransform="matrix(2.53643e-14,414.231,-414.231,2.53643e-14,829.552,0)"><stop offset="0" style="stop-color:white;stop-opacity:1"/><stop offset="1" style="stop-color:white;stop-opacity:0.6"/></linearGradient>
        <linearGradient id="_Linear9" x1="0" y1="0" x2="1" y2="0" gradientUnits="userSpaceOnUse" gradientTransform="matrix(2.53643e-14,414.231,-414.231,2.53643e-14,829.552,0)"><stop offset="0" style="stop-color:white;stop-opacity:1"/><stop offset="1" style="stop-color:white;stop-opacity:0.6"/></linearGradient>
        <linearGradient id="_Linear10" x1="0" y1="0" x2="1" y2="0" gradientUnits="userSpaceOnUse" gradientTransform="matrix(2.53643e-14,414.231,-414.231,2.53643e-14,829.552,0)"><stop offset="0" style="stop-color:white;stop-opacity:1"/><stop offset="1" style="stop-color:white;stop-opacity:0.6"/></linearGradient>
    </defs>
</svg>
