<?xml version="1.0" encoding="UTF-8" standalone="no"?>
<!DOCTYPE svg PUBLIC "-//W3C//DTD SVG 1.1//EN" "http://www.w3.org/Graphics/SVG/1.1/DTD/svg11.dtd">
<svg width="100%" height="100%" viewBox="0 0 2127 643" version="1.1" xmlns="http://www.w3.org/2000/svg" xmlns:xlink="http://www.w3.org/1999/xlink" xml:space="preserve" xmlns:serif="http://www.serif.com/" style="fill-rule:evenodd;clip-rule:evenodd;stroke-linejoin:round;stroke-miterlimit:2;">
    <g>
        <path d="M236.909,409.857c0,13.609 -1.752,26.702 -5.257,39.279c-3.506,12.577 -8.488,24.33 -14.949,35.258c-6.461,10.928 -14.158,20.894 -23.093,29.897c-8.935,9.004 -18.901,16.736 -29.897,23.196c-10.997,6.461 -22.784,11.444 -35.361,14.949c-12.578,3.505 -25.671,5.258 -39.279,5.258l-89.073,-0l0,-295.673l89.073,-0c13.608,-0 26.701,1.753 39.279,5.258c12.577,3.505 24.364,8.488 35.361,14.948c10.996,6.461 20.962,14.193 29.897,23.196c8.935,9.004 16.632,18.97 23.093,29.898c6.461,10.927 11.443,22.68 14.949,35.258c3.505,12.577 5.257,25.67 5.257,39.278Zm-59.175,-0c0,-12.233 -2.303,-23.711 -6.908,-34.433c-4.605,-10.722 -10.928,-20.103 -18.969,-28.145c-8.041,-8.041 -17.457,-14.398 -28.248,-19.072c-10.79,-4.673 -22.302,-7.01 -34.536,-7.01l-29.485,-0l0,177.321l29.485,-0c12.234,-0 23.746,-2.303 34.536,-6.907c10.791,-4.605 20.207,-10.928 28.248,-18.97c8.041,-8.041 14.364,-17.457 18.969,-28.247c4.605,-10.791 6.908,-22.303 6.908,-34.537Z" style="fill:url(#_Linear1);fill-rule:nonzero;"/>
        <path d="M326.395,557.694l-56.289,0l0,-220.827l13.608,0l18.557,26.186c9.072,-8.248 19.381,-14.605 30.928,-19.073c11.546,-4.467 23.505,-6.701 35.877,-6.701l49.691,0l-0,56.083l-49.691,0c-5.911,0 -11.478,1.1 -16.702,3.299c-5.223,2.2 -9.759,5.224 -13.608,9.073c-3.849,3.848 -6.873,8.385 -9.072,13.608c-2.2,5.223 -3.299,10.79 -3.299,16.701l-0,121.651Z" style="fill:url(#_Linear2);fill-rule:nonzero;"/>
        <path d="M654.645,557.694l-13.608,0l-21.856,-30.31c-5.361,4.811 -11.031,9.313 -17.011,13.505c-5.979,4.193 -12.268,7.836 -18.866,10.928c-6.598,3.093 -13.368,5.533 -20.309,7.32c-6.942,1.787 -13.987,2.68 -21.134,2.68c-15.533,0 -30.138,-2.611 -43.815,-7.835c-13.677,-5.223 -25.636,-12.818 -35.877,-22.783c-10.24,-9.966 -18.316,-22.166 -24.227,-36.599c-5.911,-14.433 -8.866,-30.859 -8.866,-49.278c-0,-17.183 2.955,-32.956 8.866,-47.32c5.911,-14.365 13.987,-26.702 24.227,-37.011c10.241,-10.309 22.2,-18.316 35.877,-24.021c13.677,-5.704 28.282,-8.557 43.815,-8.557c7.147,0 14.227,0.894 21.237,2.681c7.01,1.787 13.814,4.261 20.412,7.422c6.598,3.162 12.887,6.873 18.867,11.135c5.979,4.261 11.58,8.866 16.804,13.814l21.856,-26.186l13.608,0l0,220.415Zm-56.701,-112.372c0,-7.698 -1.478,-15.155 -4.433,-22.372c-2.956,-7.216 -6.976,-13.608 -12.062,-19.175c-5.086,-5.567 -11.031,-10.035 -17.836,-13.402c-6.804,-3.368 -14.055,-5.052 -21.752,-5.052c-7.698,0 -14.949,1.306 -21.753,3.918c-6.804,2.611 -12.715,6.46 -17.732,11.546c-5.018,5.086 -8.969,11.375 -11.856,18.866c-2.887,7.492 -4.33,16.048 -4.33,25.671c0,9.622 1.443,18.178 4.33,25.67c2.887,7.491 6.838,13.78 11.856,18.866c5.017,5.086 10.928,8.935 17.732,11.547c6.804,2.611 14.055,3.917 21.753,3.917c7.697,0 14.948,-1.684 21.752,-5.051c6.805,-3.368 12.75,-7.836 17.836,-13.403c5.086,-5.567 9.106,-11.959 12.062,-19.175c2.955,-7.217 4.433,-14.674 4.433,-22.371Z" style="fill:url(#_Linear3);fill-rule:nonzero;"/>
        <path d="M769.079,557.694l-56.289,0l-0,-164.744l-27.423,0l-0,-56.083l27.423,0l-0,-10.516c-0,-13.608 2.577,-26.392 7.732,-38.35c5.155,-11.959 12.234,-22.372 21.237,-31.238c9.004,-8.866 19.485,-15.876 31.444,-21.031c11.959,-5.155 24.742,-7.732 38.351,-7.732l42.268,0l0,56.083l-42.268,0c-6.048,0 -11.65,1.065 -16.804,3.196c-5.155,2.13 -9.623,5.086 -13.403,8.866c-3.78,3.78 -6.77,8.247 -8.969,13.402c-2.199,5.155 -3.299,10.756 -3.299,16.804l0,10.516l69.073,0l0,56.083l-69.073,0l0,164.744Z" style="fill:url(#_Linear4);fill-rule:nonzero;"/>
        <path d="M975.473,557.694c-13.609,0 -26.392,-2.578 -38.351,-7.732c-11.959,-5.155 -22.44,-12.234 -31.444,-21.238c-9.003,-9.003 -16.082,-19.484 -21.237,-31.443c-5.155,-11.959 -7.732,-24.743 -7.732,-38.351l-0,-65.568l-27.423,0l-0,-56.083l27.423,0l-0,-88.248l56.083,0l-0,88.248l85.358,0l-0,56.083l-85.358,0l-0,65.568c-0,5.911 1.1,11.443 3.299,16.598c2.199,5.155 5.223,9.656 9.072,13.505c3.849,3.849 8.385,6.908 13.609,9.176c5.223,2.268 10.79,3.402 16.701,3.402l55.677,56.083l-55.677,0Z" style="fill:url(#_Linear5);fill-rule:nonzero;"/>
        <path d="M1114.86,557.694l-59.18,0l0,-295.673l207.01,0l0,59.176l-147.83,0l-0,59.176l88.66,0l-0,59.175l-88.66,0l-0,118.146Z" style="fill:url(#_Linear6);fill-rule:nonzero;"/>
        <path d="M1474.65,445.322c0,16.495 -2.95,31.856 -8.86,46.082c-5.91,14.227 -13.95,26.53 -24.13,36.908c-10.17,10.378 -22.09,18.557 -35.77,24.536c-13.68,5.98 -28.35,8.969 -44.02,8.969c-15.53,0 -30.14,-2.989 -43.82,-8.969c-13.67,-5.979 -25.63,-14.158 -35.87,-24.536c-10.24,-10.378 -18.32,-22.681 -24.23,-36.908c-5.91,-14.226 -8.87,-29.587 -8.87,-46.082c-0,-16.77 2.96,-32.303 8.87,-46.599c5.91,-14.295 13.99,-26.632 24.23,-37.01c10.24,-10.379 22.2,-18.523 35.87,-24.434c13.68,-5.91 28.29,-8.866 43.82,-8.866c15.67,0 30.34,2.784 44.02,8.351c13.68,5.567 25.6,13.471 35.77,23.711c10.18,10.241 18.22,22.544 24.13,36.908c5.91,14.364 8.86,30.344 8.86,47.939Zm-56.7,0c0,-9.073 -1.48,-17.286 -4.43,-24.64c-2.96,-7.354 -6.98,-13.677 -12.06,-18.969c-5.09,-5.292 -11.04,-9.347 -17.84,-12.165c-6.8,-2.818 -14.05,-4.227 -21.75,-4.227c-7.7,0 -14.95,1.409 -21.75,4.227c-6.81,2.818 -12.72,6.873 -17.74,12.165c-5.01,5.292 -8.97,11.615 -11.85,18.969c-2.89,7.354 -4.33,15.567 -4.33,24.64c-0,8.522 1.44,16.426 4.33,23.711c2.88,7.285 6.84,13.608 11.85,18.969c5.02,5.361 10.93,9.588 17.74,12.681c6.8,3.093 14.05,4.639 21.75,4.639c7.7,0 14.95,-1.443 21.75,-4.33c6.8,-2.886 12.75,-6.941 17.84,-12.165c5.08,-5.223 9.1,-11.546 12.06,-18.969c2.95,-7.423 4.43,-15.602 4.43,-24.536Z" style="fill:url(#_Linear7);fill-rule:nonzero;"/>
        <path d="M1562.08,557.694l-56.29,0l0,-220.827l13.6,0l18.56,26.186c9.07,-8.248 19.38,-14.605 30.93,-19.073c11.55,-4.467 23.51,-6.701 35.88,-6.701l49.69,0l0,56.083l-49.69,0c-5.91,0 -11.48,1.1 -16.7,3.299c-5.23,2.2 -9.76,5.224 -13.61,9.073c-3.85,3.848 -6.88,8.385 -9.07,13.608c-2.2,5.223 -3.3,10.79 -3.3,16.701l-0,121.651Z" style="fill:url(#_Linear8);fill-rule:nonzero;"/>
        <path d="M1833.62,445.322c-0,-7.698 -1.47,-15.155 -4.43,-22.372c-2.95,-7.216 -6.97,-13.608 -12.06,-19.175c-5.09,-5.567 -11.03,-10.035 -17.83,-13.402c-6.81,-3.368 -14.06,-5.052 -21.76,-5.052c-7.7,0 -14.95,1.306 -21.75,3.918c-6.8,2.611 -12.72,6.46 -17.73,11.546c-5.02,5.086 -8.97,11.375 -11.86,18.866c-2.88,7.492 -4.33,16.048 -4.33,25.671c-0,9.209 1.45,17.491 4.33,24.845c2.89,7.354 6.84,13.643 11.86,18.866c5.01,5.224 10.93,9.244 17.73,12.062c6.8,2.818 14.05,4.227 21.75,4.227c7.7,0 14.95,-1.684 21.76,-5.051c6.8,-3.368 12.74,-7.836 17.83,-13.403c5.09,-5.567 9.11,-11.959 12.06,-19.175c2.96,-7.217 4.43,-14.674 4.43,-22.371Zm56.71,84.536c-0,15.533 -2.96,30.104 -8.87,43.712c-5.91,13.609 -13.99,25.499 -24.23,35.671c-10.24,10.171 -22.2,18.213 -35.87,24.124c-13.68,5.91 -28.28,8.866 -43.82,8.866l-662.25,-0.413l-60,-56.289l721.84,0.412c8.8,0 16.29,-1.134 22.47,-3.402c6.19,-2.268 11.41,-5.361 15.67,-9.278c4.27,-3.918 7.67,-8.419 10.21,-13.505c2.54,-5.086 4.57,-10.447 6.08,-16.083c-2.2,3.574 -5.36,6.495 -9.48,8.763c-4.13,2.268 -8.7,4.124 -13.71,5.567c-5.02,1.443 -10.24,2.44 -15.67,2.99c-5.43,0.55 -10.48,0.824 -15.16,0.824c-15.53,0 -30.14,-2.68 -43.81,-8.041c-13.68,-5.361 -25.64,-13.024 -35.88,-22.99c-10.24,-9.965 -18.32,-22.165 -24.23,-36.598c-5.91,-14.433 -8.86,-30.722 -8.86,-48.866c-0,-16.633 2.95,-32.097 8.86,-46.393c5.91,-14.295 13.99,-26.667 24.23,-37.113c10.24,-10.447 22.2,-18.626 35.88,-24.537c13.67,-5.91 28.28,-8.866 43.81,-8.866c7.15,0 14.23,0.894 21.24,2.681c7.01,1.787 13.81,4.261 20.41,7.422c6.6,3.162 12.89,6.873 18.87,11.135c5.98,4.261 11.58,8.866 16.8,13.814l21.86,-26.186l13.61,-0l-0,192.579Z" style="fill:url(#_Linear9);fill-rule:nonzero;"/>
        <path d="M2021.05,503.673c2.2,0.687 4.4,1.134 6.6,1.34c2.2,0.206 4.4,0.309 6.6,0.309c5.49,0 10.79,-0.756 15.87,-2.268c5.09,-1.512 9.86,-3.677 14.33,-6.495c4.47,-2.818 8.46,-6.254 11.96,-10.309c3.51,-4.055 6.36,-8.557 8.56,-13.506l41.23,41.444c-5.22,7.423 -11.23,14.09 -18.04,20c-6.8,5.911 -14.15,10.928 -22.06,15.052c-7.9,4.124 -16.22,7.251 -24.95,9.382c-8.73,2.13 -17.69,3.195 -26.9,3.195c-15.54,0 -30.14,-2.886 -43.82,-8.659c-13.68,-5.774 -25.63,-13.815 -35.88,-24.124c-10.24,-10.31 -18.31,-22.578 -24.22,-36.805c-5.91,-14.227 -8.87,-29.863 -8.87,-46.907c0,-17.458 2.96,-33.403 8.87,-47.836c5.91,-14.433 13.98,-26.736 24.22,-36.907c10.25,-10.172 22.2,-18.076 35.88,-23.712c13.68,-5.636 28.28,-8.454 43.82,-8.454c9.21,0 18.21,1.1 27.01,3.299c8.79,2.2 17.14,5.361 25.05,9.485c7.9,4.124 15.29,9.175 22.16,15.155c6.88,5.979 12.92,12.68 18.15,20.103l-105.57,127.218Zm28.87,-116.084c-2.62,-0.962 -5.19,-1.581 -7.74,-1.856c-2.54,-0.275 -5.19,-0.412 -7.93,-0.412c-7.7,0 -14.95,1.409 -21.76,4.227c-6.8,2.818 -12.71,6.838 -17.73,12.062c-5.02,5.223 -8.97,11.512 -11.86,18.866c-2.88,7.354 -4.32,15.636 -4.32,24.846c-0,2.061 0.1,4.398 0.3,7.01c0.21,2.612 0.55,5.258 1.03,7.938c0.49,2.681 1.07,5.258 1.76,7.732c0.69,2.474 1.58,4.674 2.68,6.598l65.57,-87.011Z" style="fill:url(#_Linear10);fill-rule:nonzero;"/>
        <path d="M49.231,57.285l-20.295,21.485l-23.432,-24.804l23.432,-24.805l20.295,21.485l-39.209,-0l-0,6.639l39.209,0Zm11.71,-3.535l23.229,-24.589l23.225,24.586l-23.226,24.626l-23.228,-24.623Zm50.537,-4.332l-23.251,-24.613l23.432,-24.805l23.432,24.805l-23.135,24.489l-0.179,-0.192l-0.299,0.316Zm4.538,4.219l23.12,-24.476l23.178,24.536l-23.175,24.678l-23.123,-24.738Zm50.408,-4.317l-23.159,-24.515l23.432,-24.805l23.089,24.442l-23.362,24.878Zm32.082,-24.887l23.081,-24.433l23.036,24.384l-23.037,24.514l-23.08,-24.465Zm85.627,26.208l20.291,-21.48l23.432,24.805l-23.432,24.804l-20.3,-21.489l39.167,0.005l-0,-6.64l-39.158,-0.005Zm-11.912,3.622l-23.151,24.507l-23.08,-24.433l23.083,-24.506l23.148,24.432Zm-50.315,4.41l23.113,24.467l-23.432,24.805l-23.431,-24.805l23.112,-24.467l0.319,0.339l0.319,-0.339Zm-4.722,-4.336l-23.081,24.433l-23.132,-24.488l23.131,-24.451l23.082,24.506Zm-50.267,4.231l23.212,24.572l-23.432,24.805l-23.229,-24.59l23.449,-24.787Zm-32.02,24.898l-23.124,24.479l-23.241,-24.604l23.121,-24.364l23.244,24.489Zm-84.68,-31.776l2.15,2.276l-2.15,2.276l-39.209,-0l-0,-4.552l39.209,-0Zm232.921,4.546l-2.145,-2.27l2.154,-2.282l39.157,0.006l0,4.552l-39.166,-0.006Z" style="fill:#fff;"/>
        <path d="M322.304,51.69l-44.407,-0.006l-28.827,-30.553l-27.483,29.245l-27.445,-29.092l-55.006,58.574l-27.363,-29.275l-27.603,29.267l-26.566,-28.16l-46.596,-0l-0,4.552l44.513,-0l28.649,30.223l27.483,-28.96l27.483,28.954l54.967,-58.105l27.484,29.179l27.483,-29.179l26.416,27.881l46.818,0.007l0,-4.552Z" style="fill:#fdd34f;"/>
        <g>
            <rect x="0" y="48.139" width="11.008" height="11.653" style="fill:#fff;"/>
        </g>
        <g>
            <rect x="322.304" y="48.139" width="11.008" height="11.653" style="fill:#fff;"/>
        </g>
        <path id="path39" d="M9.517,152.041l13.76,-0l-0,41.269l-13.76,0c0.015,-13.773 0.015,-27.529 0,-41.269Z" style="fill:#fff;fill-rule:nonzero;"/>
        <path id="path41" d="M94.23,152.029l29.216,-0l-0,8.763l-15.514,0l0,7.21l14.23,0l-0,8.703l-14.218,0l-0,7.829l15.777,0l0,8.703l-29.491,0c-0.008,-13.724 -0.008,-27.459 -0,-41.208Z" style="fill:#fff;fill-rule:nonzero;"/>
        <path id="path43" d="M190.673,152.041l38.056,-0l0,10.39l-12.2,0l0,30.843l-13.656,-0l-0,-30.843l-12.189,0c-0.011,-3.471 0,-6.931 -0.011,-10.39Z" style="fill:#fff;fill-rule:nonzero;"/>
        <path id="path45" d="M297.022,152.029l28.494,-0l0,8.763l-14.78,0l0,7.405l13.909,-0l-0,8.751l-13.909,0l0,16.289l-13.714,0l0,-41.208Z" style="fill:#fff;fill-rule:nonzero;"/>
    </g>
    <defs>
        <linearGradient id="_Linear1" x1="0" y1="0" x2="1" y2="0" gradientUnits="userSpaceOnUse" gradientTransform="matrix(2.53643e-14,414.231,-414.231,2.53643e-14,829.552,228)"><stop offset="0" style="stop-color:#fff;stop-opacity:1"/><stop offset="1" style="stop-color:#fff;stop-opacity:0.6"/></linearGradient>
        <linearGradient id="_Linear2" x1="0" y1="0" x2="1" y2="0" gradientUnits="userSpaceOnUse" gradientTransform="matrix(2.53643e-14,414.231,-414.231,2.53643e-14,829.552,228)"><stop offset="0" style="stop-color:#fff;stop-opacity:1"/><stop offset="1" style="stop-color:#fff;stop-opacity:0.6"/></linearGradient>
        <linearGradient id="_Linear3" x1="0" y1="0" x2="1" y2="0" gradientUnits="userSpaceOnUse" gradientTransform="matrix(2.53643e-14,414.231,-414.231,2.53643e-14,829.552,228)"><stop offset="0" style="stop-color:#fff;stop-opacity:1"/><stop offset="1" style="stop-color:#fff;stop-opacity:0.6"/></linearGradient>
        <linearGradient id="_Linear4" x1="0" y1="0" x2="1" y2="0" gradientUnits="userSpaceOnUse" gradientTransform="matrix(2.53643e-14,414.231,-414.231,2.53643e-14,829.552,228)"><stop offset="0" style="stop-color:#fff;stop-opacity:1"/><stop offset="1" style="stop-color:#fff;stop-opacity:0.6"/></linearGradient>
        <linearGradient id="_Linear5" x1="0" y1="0" x2="1" y2="0" gradientUnits="userSpaceOnUse" gradientTransform="matrix(2.53643e-14,414.231,-414.231,2.53643e-14,829.552,228)"><stop offset="0" style="stop-color:#fff;stop-opacity:1"/><stop offset="1" style="stop-color:#fff;stop-opacity:0.6"/></linearGradient>
        <linearGradient id="_Linear6" x1="0" y1="0" x2="1" y2="0" gradientUnits="userSpaceOnUse" gradientTransform="matrix(2.53643e-14,414.231,-414.231,2.53643e-14,829.552,228)"><stop offset="0" style="stop-color:#fff;stop-opacity:1"/><stop offset="1" style="stop-color:#fff;stop-opacity:0.6"/></linearGradient>
        <linearGradient id="_Linear7" x1="0" y1="0" x2="1" y2="0" gradientUnits="userSpaceOnUse" gradientTransform="matrix(2.53643e-14,414.231,-414.231,2.53643e-14,829.552,228)"><stop offset="0" style="stop-color:#fff;stop-opacity:1"/><stop offset="1" style="stop-color:#fff;stop-opacity:0.6"/></linearGradient>
        <linearGradient id="_Linear8" x1="0" y1="0" x2="1" y2="0" gradientUnits="userSpaceOnUse" gradientTransform="matrix(2.53643e-14,414.231,-414.231,2.53643e-14,829.552,228)"><stop offset="0" style="stop-color:#fff;stop-opacity:1"/><stop offset="1" style="stop-color:#fff;stop-opacity:0.6"/></linearGradient>
        <linearGradient id="_Linear9" x1="0" y1="0" x2="1" y2="0" gradientUnits="userSpaceOnUse" gradientTransform="matrix(2.53643e-14,414.231,-414.231,2.53643e-14,829.552,228)"><stop offset="0" style="stop-color:#fff;stop-opacity:1"/><stop offset="1" style="stop-color:#fff;stop-opacity:0.6"/></linearGradient>
        <linearGradient id="_Linear10" x1="0" y1="0" x2="1" y2="0" gradientUnits="userSpaceOnUse" gradientTransform="matrix(2.53643e-14,414.231,-414.231,2.53643e-14,829.552,228)"><stop offset="0" style="stop-color:#fff;stop-opacity:1"/><stop offset="1" style="stop-color:#fff;stop-opacity:0.6"/></linearGradient>
    </defs>
</svg>
